<svg width="575" height="334" viewBox="0 0 575 334" fill="none" xmlns="http://www.w3.org/2000/svg">
<rect width="483.795" height="223.635" rx="16.3638" transform="matrix(0.992087 0.125553 -0.124844 0.992176 95.033 0)" fill="#6E44FF"/>
<rect width="432.397" height="199.149" rx="16.3638" transform="matrix(0.992125 0.125251 -0.125145 0.992138 132.353 17.0513)" fill="white"/>
<rect width="369.577" height="24.4856" rx="12.2428" transform="matrix(0.992125 0.125251 -0.125145 0.992138 154.986 46.2338)" fill="#D9D9D9"/>
<rect width="211.304" height="24.4856" rx="12.2428" transform="matrix(0.992125 0.125251 -0.125145 0.992138 150.492 81.8636)" fill="#D9D9D9"/>
<rect width="163.985" height="43.2578" rx="12.2728" transform="matrix(0.992125 0.125251 -0.125145 0.992138 142.014 149.074)" fill="#D9D9D9"/>
<rect width="124.008" height="43.2578" rx="12.2728" transform="matrix(0.992125 0.125251 -0.125145 0.992138 317.658 171.249)" fill="#D9D9D9"/>
<rect width="106.06" height="24.4856" rx="12.2428" transform="matrix(0.992125 0.125251 -0.125145 0.992138 374.701 110.169)" fill="#D9D9D9"/>
<path d="M130.044 127.001C130.332 126.78 130.676 126.646 131.037 126.613C131.398 126.579 131.76 126.649 132.082 126.814C132.404 126.979 132.672 127.232 132.855 127.543C133.039 127.854 133.129 128.211 133.116 128.573L132.176 155.228C132.114 156.994 129.889 157.737 128.779 156.367L122.324 148.391C122.066 148.073 121.742 147.814 121.374 147.631C121.007 147.449 120.604 147.348 120.193 147.334L109.516 146.987C107.725 146.928 106.998 144.663 108.42 143.573L130.044 127.001Z" fill="#FBAE43"/>
<rect width="108.137" height="57.1307" rx="8.21543" transform="matrix(0.945312 -0.326166 0.325914 0.945399 10.6399 188.186)" fill="#FBAE43"/>
<path d="M55.1735 208.552L49.4162 210.538L49.4132 213.621L46.3688 214.672L46.5761 198.401L49.9518 197.236L60.1408 209.92L57.0758 210.978L55.1735 208.552ZM53.5868 206.503L49.4103 201.177L49.4035 207.947L53.5868 206.503ZM64.1701 195.505C65.5369 195.034 66.7914 195.088 67.9335 195.667C69.0708 196.232 69.906 197.288 70.4391 198.835L72.7597 205.566L69.8603 206.566L67.6754 200.229C67.3613 199.317 66.8931 198.699 66.2709 198.373C65.6439 198.033 64.9369 197.999 64.15 198.27C63.3492 198.546 62.7998 199.014 62.5017 199.673C62.2127 200.314 62.2253 201.089 62.5394 202.001L64.7243 208.339L61.8249 209.339L57.8693 197.865L60.7687 196.864L61.2614 198.293C61.4766 197.663 61.8334 197.107 62.3319 196.626C62.8394 196.127 63.4522 195.753 64.1701 195.505ZM77.6031 190.87C78.97 190.399 80.2244 190.453 81.3665 191.032C82.5038 191.597 83.339 192.653 83.8722 194.2L86.1927 200.931L83.2933 201.932L81.1085 195.594C80.7943 194.683 80.3261 194.064 79.7039 193.738C79.0769 193.398 78.3699 193.364 77.583 193.635C76.7822 193.912 76.2328 194.379 75.9347 195.038C75.6457 195.679 75.6583 196.455 75.9724 197.366L78.1573 203.704L75.2579 204.704L71.3023 193.23L74.2017 192.229L74.6944 193.659C74.9096 193.028 75.2664 192.472 75.7649 191.991C76.2724 191.492 76.8852 191.118 77.6031 190.87ZM85.9533 194.548C85.5535 193.388 85.4267 192.281 85.5729 191.226C85.7329 190.167 86.1231 189.259 86.7435 188.505C87.3776 187.745 88.1848 187.196 89.1651 186.858C90.0211 186.563 90.8262 186.478 91.5803 186.604C92.3482 186.725 93.0158 186.982 93.5833 187.373L93.0192 185.737L95.9393 184.729L99.8949 196.203L96.9748 197.211L96.3965 195.533C96.2094 196.2 95.8463 196.828 95.3074 197.416C94.7775 197.985 94.0845 198.417 93.2285 198.712C92.2621 199.046 91.2928 199.102 90.3206 198.881C89.3623 198.656 88.4937 198.175 87.7149 197.44C86.9451 196.685 86.3579 195.722 85.9533 194.548ZM94.997 191.474C94.7543 190.77 94.4092 190.217 93.9617 189.815C93.5094 189.399 93.0034 189.141 92.4435 189.041C91.8789 188.927 91.3273 188.962 90.7889 189.148C90.2504 189.334 89.7986 189.637 89.4334 190.056C89.0683 190.476 88.8288 190.991 88.715 191.602C88.6102 192.194 88.6768 192.836 88.9148 193.526C89.1528 194.216 89.5003 194.776 89.9573 195.206C90.4234 195.617 90.9318 195.882 91.4826 196.001C92.0473 196.115 92.5919 196.081 93.1165 195.9C93.655 195.714 94.1137 195.409 94.4927 194.985C94.8669 194.547 95.1064 194.032 95.2112 193.439C95.3112 192.833 95.2398 192.178 94.997 191.474Z" fill="white"/>
<path d="M407.75 219.23C407.463 219.01 407.118 218.875 406.757 218.842C406.397 218.809 406.034 218.879 405.712 219.044C405.39 219.209 405.122 219.461 404.939 219.773C404.756 220.084 404.665 220.441 404.678 220.802L405.618 247.458C405.681 249.223 407.905 249.967 409.015 248.596L415.471 240.621C415.728 240.303 416.052 240.043 416.42 239.861C416.787 239.679 417.19 239.577 417.601 239.564L428.278 239.216C430.07 239.158 430.796 236.892 429.374 235.802L407.75 219.23Z" fill="#94E170"/>
<rect width="108.137" height="57.1307" rx="8.21543" transform="matrix(-0.945312 -0.326166 -0.325914 0.945399 527.031 279.988)" fill="#94E170"/>
<path d="M456.814 286.396C457.576 286.829 458.106 287.467 458.403 288.31C458.7 289.154 458.701 290.004 458.406 290.86C458.14 291.633 457.712 292.251 457.121 292.711C456.549 293.163 455.847 293.431 455.014 293.516C454.182 293.6 453.276 293.473 452.295 293.136L446.06 290.99L451.032 276.529L456.998 278.583C457.979 278.92 458.767 279.369 459.362 279.929C459.971 280.494 460.357 281.121 460.522 281.811C460.7 282.505 460.665 283.212 460.418 283.93C460.129 284.772 459.659 285.398 459.008 285.808C458.372 286.222 457.64 286.418 456.814 286.396ZM451.881 283.494L454.532 284.407C455.223 284.644 455.807 284.675 456.284 284.5C456.766 284.31 457.107 283.926 457.307 283.346C457.506 282.765 457.474 282.252 457.21 281.806C456.947 281.36 456.469 281.019 455.779 280.781L453.127 279.869L451.881 283.494ZM452.693 290.632C453.398 290.874 454 290.896 454.501 290.698C455.015 290.504 455.377 290.103 455.586 289.496C455.8 288.874 455.759 288.319 455.463 287.831C455.172 287.33 454.675 286.958 453.97 286.715L451.112 285.732L449.772 289.626L452.693 290.632ZM471.84 293.166C471.697 293.58 471.541 293.944 471.372 294.256L462.982 291.369C462.766 292.221 462.833 292.97 463.183 293.616C463.532 294.261 464.08 294.712 464.826 294.969C465.903 295.34 466.828 295.141 467.602 294.372L470.73 295.449C470.019 296.439 469.07 297.132 467.884 297.527C466.703 297.909 465.429 297.864 464.062 297.393C462.957 297.013 462.045 296.429 461.328 295.642C460.629 294.845 460.185 293.912 459.996 292.844C459.822 291.78 459.936 290.661 460.34 289.487C460.748 288.299 461.349 287.339 462.141 286.608C462.933 285.876 463.847 285.419 464.883 285.235C465.919 285.051 467.004 285.153 468.136 285.543C469.227 285.919 470.12 286.488 470.815 287.253C471.523 288.022 471.963 288.922 472.133 289.954C472.322 290.976 472.224 292.047 471.84 293.166ZM469.121 291.303C469.363 290.553 469.298 289.866 468.926 289.244C468.557 288.607 467.994 288.158 467.234 287.897C466.516 287.65 465.832 287.662 465.183 287.933C464.553 288.195 464.049 288.693 463.673 289.429L469.121 291.303ZM482.002 290.338C483.369 290.808 484.324 291.624 484.868 292.784C485.416 293.93 485.424 295.276 484.892 296.823L482.577 303.557L479.677 302.558L481.856 296.219C482.17 295.307 482.182 294.531 481.892 293.891C481.607 293.237 481.071 292.775 480.284 292.504C479.483 292.228 478.762 292.258 478.122 292.594C477.5 292.92 477.032 293.539 476.719 294.451L474.539 300.791L471.639 299.793L475.585 288.315L478.485 289.313L477.994 290.743C478.552 290.378 479.175 290.16 479.864 290.089C480.571 290.008 481.284 290.091 482.002 290.338Z" fill="white"/>
</svg>
