<svg width="278" height="268" viewBox="0 0 278 268" fill="none" xmlns="http://www.w3.org/2000/svg">
<rect width="278" height="268" rx="20" fill="white"/>
<circle cx="49" cy="49" r="25" fill="#6C757D" fill-opacity="0.3"/>
<rect x="84" y="34" width="130" height="10" rx="5" fill="#6C757D" fill-opacity="0.3"/>
<rect x="84" y="54" width="86" height="10" rx="5" fill="#6C757D" fill-opacity="0.3"/>
<line x1="24" y1="87.5" x2="254" y2="87.5" stroke="#6C757D" stroke-opacity="0.3"/>
<circle cx="49" cy="127" r="25" fill="#6C757D" fill-opacity="0.3"/>
<rect x="84" y="112" width="130" height="10" rx="5" fill="#6C757D" fill-opacity="0.3"/>
<rect x="84" y="132" width="86" height="10" rx="5" fill="#6C757D" fill-opacity="0.3"/>
<line x1="24" y1="165.5" x2="254" y2="165.5" stroke="#6C757D" stroke-opacity="0.3"/>
<circle cx="49" cy="205" r="25" fill="#6C757D" fill-opacity="0.3"/>
<rect x="84" y="190" width="130" height="10" rx="5" fill="#6C757D" fill-opacity="0.3"/>
<rect x="84" y="210" width="86" height="10" rx="5" fill="#6C757D" fill-opacity="0.3"/>
<line x1="24" y1="243.5" x2="254" y2="243.5" stroke="#6C757D" stroke-opacity="0.3"/>
<path d="M192.961 209.05C192.785 208.991 192.595 208.983 192.413 209.028C192.232 209.072 192.068 209.167 191.939 209.3C191.81 209.434 191.722 209.601 191.685 209.783C191.648 209.964 191.664 210.152 191.731 210.325L196.661 223.085C196.988 223.93 198.194 223.919 198.504 223.069L200.305 218.125C200.377 217.927 200.491 217.748 200.639 217.598C200.788 217.448 200.967 217.332 201.164 217.256L206.298 215.303C207.16 214.975 207.133 213.755 206.258 213.465L192.961 209.05Z" fill="#94E170"/>
<rect width="55.6321" height="29.287" rx="4.23104" transform="matrix(-1 1.16429e-07 0.00026639 1 261.166 218.549)" fill="#94E170"/>
<path d="M228.098 233.098C228.542 233.18 228.907 233.402 229.193 233.763C229.479 234.124 229.623 234.537 229.623 235.004C229.624 235.425 229.519 235.797 229.308 236.121C229.106 236.437 228.809 236.685 228.418 236.866C228.027 237.047 227.564 237.138 227.03 237.138L223.634 237.141L223.626 229.266L226.875 229.263C227.409 229.263 227.868 229.349 228.252 229.521C228.643 229.694 228.937 229.935 229.133 230.243C229.336 230.551 229.438 230.901 229.439 231.292C229.439 231.751 229.315 232.134 229.067 232.443C228.827 232.752 228.504 232.97 228.098 233.098ZM225.209 232.514L226.653 232.513C227.029 232.512 227.319 232.429 227.522 232.264C227.724 232.09 227.826 231.846 227.825 231.53C227.825 231.214 227.723 230.97 227.52 230.797C227.317 230.624 227.027 230.538 226.651 230.538L225.207 230.539L225.209 232.514ZM226.803 235.852C227.187 235.852 227.484 235.761 227.694 235.581C227.912 235.4 228.021 235.144 228.021 234.813C228.02 234.475 227.907 234.212 227.681 234.024C227.456 233.828 227.151 233.731 226.767 233.731L225.21 233.732L225.212 235.853L226.803 235.852ZM236.55 233.87C236.551 234.095 236.536 234.299 236.506 234.479L231.936 234.483C231.974 234.934 232.133 235.287 232.411 235.543C232.69 235.798 233.032 235.926 233.439 235.926C234.025 235.925 234.442 235.673 234.69 235.169L236.394 235.167C236.214 235.769 235.868 236.266 235.357 236.658C234.846 237.042 234.218 237.234 233.474 237.235C232.872 237.235 232.33 237.104 231.849 236.841C231.375 236.571 231.002 236.191 230.73 235.702C230.467 235.214 230.334 234.65 230.334 234.01C230.333 233.363 230.464 232.795 230.727 232.306C230.99 231.817 231.358 231.441 231.831 231.177C232.305 230.913 232.85 230.781 233.467 230.781C234.061 230.78 234.592 230.908 235.058 231.163C235.532 231.418 235.897 231.783 236.154 232.257C236.418 232.723 236.55 233.261 236.55 233.87ZM234.914 233.42C234.906 233.014 234.759 232.69 234.473 232.45C234.187 232.202 233.837 232.078 233.423 232.078C233.032 232.079 232.701 232.199 232.431 232.44C232.168 232.674 232.006 233.001 231.947 233.422L234.914 233.42ZM241.023 230.786C241.767 230.785 242.369 231.022 242.829 231.495C243.288 231.961 243.518 232.616 243.519 233.458L243.523 237.125L241.944 237.126L241.94 233.674C241.939 233.177 241.815 232.797 241.566 232.534C241.318 232.264 240.979 232.129 240.55 232.129C240.114 232.129 239.768 232.265 239.513 232.536C239.265 232.799 239.141 233.179 239.142 233.676L239.145 237.128L237.566 237.13L237.559 230.879L239.139 230.878L239.14 231.656C239.35 231.385 239.617 231.174 239.94 231.024C240.271 230.866 240.632 230.786 241.023 230.786Z" fill="white"/>
</svg>
